<svg xmlns="http://www.w3.org/2000/svg" xmlns:xlink="http://www.w3.org/1999/xlink" contentStyleType="text/css" data-diagram-type="CLASS" height="237px" preserveAspectRatio="none" style="width:566px;height:237px;background:#FFFFFF;" version="1.1" viewBox="0 0 566 237" width="566px" zoomAndPan="magnify"><defs/><g><!--class DATA_VALUE--><g class="entity" data-entity="DATA_VALUE" data-source-line="2" data-uid="ent0002" id="entity_DATA_VALUE"><rect fill="#F1F1F1" height="48" rx="2.5" ry="2.5" style="stroke:#181818;stroke-width:0.5;" width="116.2657" x="222.17" y="7"/><ellipse cx="237.17" cy="23" fill="#A9DCDF" rx="11" ry="11" style="stroke:#181818;stroke-width:1;"/><path d="M231.6856,28.5 L233.7169,28.5 L237.7638,17.1563 L236.8575,17.1563 L240.6856,28.5 L242.8263,28.5 L238.4981,16.1719 L236.2794,16.1719 L231.6856,28.5 Z M234.0138,25 L240.4513,25 L240.4513,23.25 L234.0138,23.25 L234.0138,25 Z " fill="#000000"/><text fill="#000000" font-family="sans-serif" font-size="14" font-style="italic" lengthAdjust="spacing" textLength="84.2657" x="251.17" y="28.362">DATA_VALUE</text><line style="stroke:#181818;stroke-width:0.5;" x1="223.17" x2="337.4357" y1="39" y2="39"/><line style="stroke:#181818;stroke-width:0.5;" x1="223.17" x2="337.4357" y1="47" y2="47"/></g><!--class DV_BOOLEAN--><g class="entity" data-entity="DV_BOOLEAN" data-source-line="5" data-uid="ent0003" id="entity_DV_BOOLEAN"><rect fill="#F1F1F1" height="64.7999" rx="2.5" ry="2.5" style="stroke:#181818;stroke-width:0.5;" width="138.6155" x="7" y="140.2"/><ellipse cx="29.4682" cy="156.2" fill="#ADD1B2" rx="11" ry="11" style="stroke:#181818;stroke-width:1;"/><path d="M29.4682,162.6219 C30.64,162.6219 31.8744,162.3563 33.2494,161.7469 L32.765,160.2313 C31.6713,160.6531 30.6557,160.8406 29.7963,160.8406 C27.0775,160.8406 25.3588,158.9969 25.3588,156.0906 C25.3588,153.3406 26.9213,151.7469 29.6557,151.7469 C30.5775,151.7469 31.5932,151.9344 32.7338,152.3563 L33.3119,150.8406 C32.2182,150.2625 30.9213,149.9656 29.7338,149.9656 C25.9682,149.9656 23.39,152.6063 23.39,156.4188 C23.39,160.0906 25.8744,162.6219 29.4682,162.6219 Z " fill="#000000"/><text fill="#000000" font-family="sans-serif" font-size="14" lengthAdjust="spacing" textLength="90.0196" x="45.1278" y="161.562">DV_BOOLEAN</text><line style="stroke:#181818;stroke-width:0.5;" x1="8" x2="144.6155" y1="172.2" y2="172.2"/><ellipse cx="18" cy="186.1" fill="none" rx="3" ry="3" style="stroke:#038048;stroke-width:1;"/><text fill="#000000" font-family="sans-serif" font-size="14" lengthAdjust="spacing" textLength="112.6155" x="27" y="189.9619">value : Boolean [1]</text><line style="stroke:#181818;stroke-width:0.5;" x1="8" x2="144.6155" y1="196.9999" y2="196.9999"/></g><!--class DV_STATE--><g class="entity" data-entity="DV_STATE" data-source-line="9" data-uid="ent0004" id="entity_DV_STATE"><rect fill="#F1F1F1" height="81.5999" rx="2.5" ry="2.5" style="stroke:#181818;stroke-width:0.5;" width="200.0473" x="180.28" y="131.8"/><ellipse cx="243.0908" cy="147.8" fill="#ADD1B2" rx="11" ry="11" style="stroke:#181818;stroke-width:1;"/><path d="M243.0908,154.2219 C244.2627,154.2219 245.497,153.9562 246.872,153.3469 L246.3877,151.8312 C245.2939,152.2531 244.2783,152.4406 243.4189,152.4406 C240.7002,152.4406 238.9814,150.5969 238.9814,147.6906 C238.9814,144.9406 240.5439,143.3469 243.2783,143.3469 C244.2002,143.3469 245.2158,143.5344 246.3564,143.9562 L246.9345,142.4406 C245.8408,141.8625 244.5439,141.5656 243.3564,141.5656 C239.5908,141.5656 237.0127,144.2062 237.0127,148.0187 C237.0127,151.6906 239.497,154.2219 243.0908,154.2219 Z " fill="#000000"/><text fill="#000000" font-family="sans-serif" font-size="14" lengthAdjust="spacing" textLength="65.9257" x="263.5908" y="153.162">DV_STATE</text><line style="stroke:#181818;stroke-width:0.5;" x1="181.28" x2="379.3273" y1="163.8" y2="163.8"/><ellipse cx="191.28" cy="177.7" fill="none" rx="3" ry="3" style="stroke:#038048;stroke-width:1;"/><text fill="#000000" font-family="sans-serif" font-size="14" lengthAdjust="spacing" textLength="174.0473" x="200.28" y="181.5619">value : DV_CODED_TEXT [1]</text><ellipse cx="191.28" cy="194.4999" fill="none" rx="3" ry="3" style="stroke:#038048;stroke-width:1;"/><text fill="#000000" font-family="sans-serif" font-size="14" lengthAdjust="spacing" textLength="149.1414" x="200.28" y="198.3619">is_terminal : Boolean [1]</text><line style="stroke:#181818;stroke-width:0.5;" x1="181.28" x2="379.3273" y1="205.3999" y2="205.3999"/></g><!--class DV_IDENTIFIER--><g class="entity" data-entity="DV_IDENTIFIER" data-source-line="14" data-uid="ent0005" id="entity_DV_IDENTIFIER"><rect fill="#F1F1F1" height="115.1997" rx="2.5" ry="2.5" style="stroke:#181818;stroke-width:0.5;" width="144.1735" x="415.22" y="115"/><ellipse cx="436.6424" cy="131" fill="#ADD1B2" rx="11" ry="11" style="stroke:#181818;stroke-width:1;"/><path d="M436.6424,137.4219 C437.8142,137.4219 439.0486,137.1563 440.4236,136.5469 L439.9392,135.0313 C438.8455,135.4531 437.8299,135.6406 436.9705,135.6406 C434.2517,135.6406 432.533,133.7969 432.533,130.8906 C432.533,128.1406 434.0955,126.5469 436.8299,126.5469 C437.7517,126.5469 438.7674,126.7344 439.908,127.1563 L440.4861,125.6406 C439.3924,125.0625 438.0955,124.7656 436.908,124.7656 C433.1424,124.7656 430.5642,127.4063 430.5642,131.2188 C430.5642,134.8906 433.0486,137.4219 436.6424,137.4219 Z " fill="#000000"/><text fill="#000000" font-family="sans-serif" font-size="14" lengthAdjust="spacing" textLength="97.9016" x="452.0696" y="136.362">DV_IDENTIFIER</text><line style="stroke:#181818;stroke-width:0.5;" x1="416.22" x2="558.3935" y1="147" y2="147"/><ellipse cx="426.22" cy="160.9" fill="none" rx="3" ry="3" style="stroke:#038048;stroke-width:1;"/><text fill="#000000" font-family="sans-serif" font-size="14" lengthAdjust="spacing" textLength="102.8996" x="435.22" y="164.7619">issuer : String [1]</text><ellipse cx="426.22" cy="177.6999" fill="none" rx="3" ry="3" style="stroke:#038048;stroke-width:1;"/><text fill="#000000" font-family="sans-serif" font-size="14" lengthAdjust="spacing" textLength="118.1735" x="435.22" y="181.5619">assigner : String [1]</text><ellipse cx="426.22" cy="194.4998" fill="none" rx="3" ry="3" style="stroke:#038048;stroke-width:1;"/><text fill="#000000" font-family="sans-serif" font-size="14" lengthAdjust="spacing" textLength="77.4057" x="435.22" y="198.3618">id : String [1]</text><ellipse cx="426.22" cy="211.2997" fill="none" rx="3" ry="3" style="stroke:#038048;stroke-width:1;"/><text fill="#000000" font-family="sans-serif" font-size="14" lengthAdjust="spacing" textLength="93.1416" x="435.22" y="215.1617">type : String [1]</text><line style="stroke:#181818;stroke-width:0.5;" x1="416.22" x2="558.3935" y1="222.1997" y2="222.1997"/></g><!--reverse link DATA_VALUE to DV_BOOLEAN--><g class="link" data-entity-1="DATA_VALUE" data-entity-2="DV_BOOLEAN" data-source-line="21" data-uid="lnk6" id="link_DATA_VALUE_DV_BOOLEAN"><path codeLine="21" d="M231.3052,65.5354 C197.5052,88.6654 160.37,114.08 122.81,139.78" fill="none" id="DATA_VALUE-backto-DV_BOOLEAN" style="stroke:#181818;stroke-width:1;"/><polygon fill="none" points="246.16,55.37,227.9168,60.5838,234.6937,70.487,246.16,55.37" style="stroke:#181818;stroke-width:1;"/></g><!--reverse link DATA_VALUE to DV_STATE--><g class="link" data-entity-1="DATA_VALUE" data-entity-2="DV_STATE" data-source-line="22" data-uid="lnk7" id="link_DATA_VALUE_DV_STATE"><path codeLine="22" d="M280.31,73.37 C280.31,94.09 280.31,106.81 280.31,131.46" fill="none" id="DATA_VALUE-backto-DV_STATE" style="stroke:#181818;stroke-width:1;"/><polygon fill="none" points="280.31,55.37,274.31,73.37,286.31,73.37,280.31,55.37" style="stroke:#181818;stroke-width:1;"/></g><!--reverse link DATA_VALUE to DV_IDENTIFIER--><g class="link" data-entity-1="DATA_VALUE" data-entity-2="DV_IDENTIFIER" data-source-line="23" data-uid="lnk8" id="link_DATA_VALUE_DV_IDENTIFIER"><path codeLine="23" d="M329.8769,65.4293 C357.0469,83.7393 380.86,99.81 414.73,122.66" fill="none" id="DATA_VALUE-backto-DV_IDENTIFIER" style="stroke:#181818;stroke-width:1;"/><polygon fill="none" points="314.95,55.37,326.5238,70.4049,333.2299,60.4537,314.95,55.37" style="stroke:#181818;stroke-width:1;"/></g></g></svg>
