<svg xmlns="http://www.w3.org/2000/svg" xmlns:xlink="http://www.w3.org/1999/xlink" contentStyleType="text/css" data-diagram-type="CLASS" height="203px" preserveAspectRatio="none" style="width:375px;height:203px;background:#FFFFFF;" version="1.1" viewBox="0 0 375 203" width="375px" zoomAndPan="magnify"><defs/><g><!--class VERSIONED_FOLDER--><g class="entity" data-entity="VERSIONED_FOLDER" data-source-line="2" data-uid="ent0002" id="entity_VERSIONED_FOLDER"><rect fill="#F1F1F1" height="48" rx="2.5" ry="2.5" style="stroke:#181818;stroke-width:0.5;" width="167.4635" x="7" y="7"/><ellipse cx="22" cy="23" fill="#ADD1B2" rx="11" ry="11" style="stroke:#181818;stroke-width:1;"/><path d="M22,29.4219 C23.1719,29.4219 24.4063,29.1563 25.7813,28.5469 L25.2969,27.0313 C24.2031,27.4531 23.1875,27.6406 22.3281,27.6406 C19.6094,27.6406 17.8906,25.7969 17.8906,22.8906 C17.8906,20.1406 19.4531,18.5469 22.1875,18.5469 C23.1094,18.5469 24.125,18.7344 25.2656,19.1563 L25.8438,17.6406 C24.75,17.0625 23.4531,16.7656 22.2656,16.7656 C18.5,16.7656 15.9219,19.4063 15.9219,23.2188 C15.9219,26.8906 18.4063,29.4219 22,29.4219 Z " fill="#000000"/><text fill="#000000" font-family="sans-serif" font-size="14" lengthAdjust="spacing" textLength="135.4635" x="36" y="28.362">VERSIONED_FOLDER</text><line style="stroke:#181818;stroke-width:0.5;" x1="8" x2="173.4635" y1="39" y2="39"/><line style="stroke:#181818;stroke-width:0.5;" x1="8" x2="173.4635" y1="47" y2="47"/></g><!--class FOLDER--><g class="entity" data-entity="FOLDER" data-source-line="5" data-uid="ent0003" id="entity_FOLDER"><rect fill="#F1F1F1" height="81.5999" rx="2.5" ry="2.5" style="stroke:#181818;stroke-width:0.5;" width="210.1972" x="158.63" y="115"/><ellipse cx="233.2707" cy="131" fill="#ADD1B2" rx="11" ry="11" style="stroke:#181818;stroke-width:1;"/><path d="M233.2707,137.4219 C234.4426,137.4219 235.677,137.1563 237.052,136.5469 L236.5676,135.0313 C235.4738,135.4531 234.4582,135.6406 233.5988,135.6406 C230.8801,135.6406 229.1613,133.7969 229.1613,130.8906 C229.1613,128.1406 230.7238,126.5469 233.4582,126.5469 C234.3801,126.5469 235.3957,126.7344 236.5363,127.1563 L237.1145,125.6406 C236.0207,125.0625 234.7238,124.7656 233.5363,124.7656 C229.7707,124.7656 227.1926,127.4063 227.1926,131.2188 C227.1926,134.8906 229.677,137.4219 233.2707,137.4219 Z " fill="#000000"/><text fill="#000000" font-family="sans-serif" font-size="14" lengthAdjust="spacing" textLength="52.4158" x="253.7707" y="136.362">FOLDER</text><line style="stroke:#181818;stroke-width:0.5;" x1="159.63" x2="367.8272" y1="147" y2="147"/><ellipse cx="169.63" cy="160.9" fill="none" rx="3" ry="3" style="stroke:#038048;stroke-width:1;"/><text fill="#000000" font-family="sans-serif" font-size="14" lengthAdjust="spacing" textLength="184.1972" x="178.63" y="164.7619">items : List&lt;OBJECT_REF&gt; [*]</text><ellipse cx="169.63" cy="177.6999" fill="none" rx="3" ry="3" style="stroke:#038048;stroke-width:1;"/><text fill="#000000" font-family="sans-serif" font-size="14" lengthAdjust="spacing" textLength="163.6593" x="178.63" y="181.5619">folders : List&lt;FOLDER&gt; [*]</text><line style="stroke:#181818;stroke-width:0.5;" x1="159.63" x2="367.8272" y1="188.5999" y2="188.5999"/></g><!--class LOCATABLE--><g class="entity" data-entity="LOCATABLE" data-source-line="10" data-uid="ent0004" id="entity_LOCATABLE"><rect fill="#F1F1F1" height="48" rx="2.5" ry="2.5" style="stroke:#181818;stroke-width:0.5;" width="108.2857" x="209.59" y="7"/><ellipse cx="224.59" cy="23" fill="#ADD1B2" rx="11" ry="11" style="stroke:#181818;stroke-width:1;"/><path d="M224.59,29.4219 C225.7619,29.4219 226.9963,29.1563 228.3713,28.5469 L227.8869,27.0313 C226.7931,27.4531 225.7775,27.6406 224.9181,27.6406 C222.1994,27.6406 220.4806,25.7969 220.4806,22.8906 C220.4806,20.1406 222.0431,18.5469 224.7775,18.5469 C225.6994,18.5469 226.715,18.7344 227.8556,19.1563 L228.4338,17.6406 C227.34,17.0625 226.0431,16.7656 224.8556,16.7656 C221.09,16.7656 218.5119,19.4063 218.5119,23.2188 C218.5119,26.8906 220.9963,29.4219 224.59,29.4219 Z " fill="#000000"/><text fill="#000000" font-family="sans-serif" font-size="14" lengthAdjust="spacing" textLength="76.2857" x="238.59" y="28.362">LOCATABLE</text><line style="stroke:#181818;stroke-width:0.5;" x1="210.59" x2="316.8757" y1="39" y2="39"/><line style="stroke:#181818;stroke-width:0.5;" x1="210.59" x2="316.8757" y1="47" y2="47"/></g><!--reverse link LOCATABLE to FOLDER--><g class="link" data-entity-1="LOCATABLE" data-entity-2="FOLDER" data-source-line="10" data-uid="lnk5" id="link_LOCATABLE_FOLDER"><path codeLine="10" d="M263.73,73.39 C263.73,90.09 263.73,94.98 263.73,114.58" fill="none" id="LOCATABLE-backto-FOLDER" style="stroke:#181818;stroke-width:1;"/><polygon fill="none" points="263.73,55.39,257.73,73.39,269.73,73.39,263.73,55.39" style="stroke:#181818;stroke-width:1;"/></g></g></svg>
