<svg xmlns="http://www.w3.org/2000/svg" xmlns:xlink="http://www.w3.org/1999/xlink" contentStyleType="text/css" data-diagram-type="CLASS" height="170px" preserveAspectRatio="none" style="width:244px;height:170px;background:#FFFFFF;" version="1.1" viewBox="0 0 244 170" width="244px" zoomAndPan="magnify"><defs/><g><!--class DV_INTERVAL--><g class="entity" data-entity="DV_INTERVAL" data-source-line="2" data-uid="ent0002" id="entity_DV_INTERVAL"><rect fill="#F1F1F1" height="48" rx="2.5" ry="2.5" style="stroke:#181818;stroke-width:0.5;" width="131.4957" x="65.38" y="115"/><ellipse cx="80.38" cy="131" fill="#ADD1B2" rx="11" ry="11" style="stroke:#181818;stroke-width:1;"/><path d="M80.38,137.4219 C81.5519,137.4219 82.7863,137.1563 84.1613,136.5469 L83.6769,135.0313 C82.5831,135.4531 81.5675,135.6406 80.7081,135.6406 C77.9894,135.6406 76.2706,133.7969 76.2706,130.8906 C76.2706,128.1406 77.8331,126.5469 80.5675,126.5469 C81.4894,126.5469 82.505,126.7344 83.6456,127.1563 L84.2238,125.6406 C83.13,125.0625 81.8331,124.7656 80.6456,124.7656 C76.88,124.7656 74.3019,127.4063 74.3019,131.2188 C74.3019,134.8906 76.7863,137.4219 80.38,137.4219 Z " fill="#000000"/><text fill="#000000" font-family="sans-serif" font-size="14" lengthAdjust="spacing" textLength="88.7036" x="94.38" y="136.362">DV_INTERVAL</text><rect fill="#FFFFFF" height="16.4001" style="stroke:#181818;stroke-width:1;stroke-dasharray:2,2;" width="8.7921" x="191.0836" y="112"/><text fill="#000000" font-family="sans-serif" font-size="12" font-style="italic" lengthAdjust="spacing" textLength="6.7921" x="192.0836" y="124.7961">T</text><line style="stroke:#181818;stroke-width:0.5;" x1="66.38" x2="195.8757" y1="147" y2="147"/><line style="stroke:#181818;stroke-width:0.5;" x1="66.38" x2="195.8757" y1="155" y2="155"/></g><!--class DATA_VALUE--><g class="entity" data-entity="DATA_VALUE" data-source-line="5" data-uid="ent0003" id="entity_DATA_VALUE"><rect fill="#F5F5F5" height="48" rx="2.5" ry="2.5" style="stroke:#808080;stroke-width:1;stroke-dasharray:1,3;" width="116.2657" x="7" y="7"/><ellipse cx="22" cy="23" fill="#A9DCDF" rx="11" ry="11" style="stroke:#181818;stroke-width:1;"/><path d="M16.5156,28.5 L18.5469,28.5 L22.5938,17.1563 L21.6875,17.1563 L25.5156,28.5 L27.6563,28.5 L23.3281,16.1719 L21.1094,16.1719 L16.5156,28.5 Z M18.8438,25 L25.2813,25 L25.2813,23.25 L18.8438,23.25 L18.8438,25 Z " fill="#000000"/><text fill="#808080" font-family="sans-serif" font-size="14" font-style="italic" lengthAdjust="spacing" textLength="84.2657" x="36" y="28.362">DATA_VALUE</text><line style="stroke:#808080;stroke-width:1;stroke-dasharray:1,3;" x1="8" x2="122.2657" y1="39" y2="39"/><line style="stroke:#808080;stroke-width:1;stroke-dasharray:1,3;" x1="8" x2="122.2657" y1="47" y2="47"/></g><!--class Interval--><g class="entity" data-entity="Interval" data-source-line="10" data-uid="ent0005" id="entity_Interval"><rect fill="#F1F1F1" height="48" rx="2.5" ry="2.5" style="stroke:#181818;stroke-width:0.5;" width="79.1798" x="158.54" y="7"/><ellipse cx="173.54" cy="23" fill="#ADD1B2" rx="11" ry="11" style="stroke:#181818;stroke-width:1;"/><path d="M173.54,29.4219 C174.7119,29.4219 175.9463,29.1563 177.3213,28.5469 L176.8369,27.0313 C175.7431,27.4531 174.7275,27.6406 173.8681,27.6406 C171.1494,27.6406 169.4306,25.7969 169.4306,22.8906 C169.4306,20.1406 170.9931,18.5469 173.7275,18.5469 C174.6494,18.5469 175.665,18.7344 176.8056,19.1563 L177.3838,17.6406 C176.29,17.0625 174.9931,16.7656 173.8056,16.7656 C170.04,16.7656 167.4619,19.4063 167.4619,23.2188 C167.4619,26.8906 169.9463,29.4219 173.54,29.4219 Z " fill="#000000"/><text fill="#000000" font-family="sans-serif" font-size="14" lengthAdjust="spacing" textLength="47.1798" x="187.54" y="28.362">Interval</text><line style="stroke:#181818;stroke-width:0.5;" x1="159.54" x2="236.7198" y1="39" y2="39"/><line style="stroke:#181818;stroke-width:0.5;" x1="159.54" x2="236.7198" y1="47" y2="47"/></g><!--reverse link DATA_VALUE to DV_INTERVAL--><g class="link" data-entity-1="DATA_VALUE" data-entity-2="DV_INTERVAL" data-source-line="8" data-uid="lnk4" id="link_DATA_VALUE_DV_INTERVAL"><path codeLine="8" d="M89.1289,70.5434 C100.1289,88.2234 105.69,97.13 116.68,114.79" fill="none" id="DATA_VALUE-backto-DV_INTERVAL" style="stroke:#181818;stroke-width:1;"/><polygon fill="none" points="79.62,55.26,84.0344,73.713,94.2233,67.3737,79.62,55.26" style="stroke:#181818;stroke-width:1;"/></g><!--reverse link Interval to DV_INTERVAL--><g class="link" data-entity-1="Interval" data-entity-2="DV_INTERVAL" data-source-line="10" data-uid="lnk6" id="link_Interval_DV_INTERVAL"><path codeLine="10" d="M173.8159,70.4774 C162.6459,88.1574 156.96,97.13 145.8,114.79" fill="none" id="Interval-backto-DV_INTERVAL" style="stroke:#181818;stroke-width:1;"/><polygon fill="none" points="183.43,55.26,168.7434,67.2727,178.8883,73.6821,183.43,55.26" style="stroke:#181818;stroke-width:1;"/></g></g></svg>
